<?xml version="1.0" encoding="utf-8"?>
<!-- Generator: Adobe Illustrator 26.5.0, SVG Export Plug-In . SVG Version: 6.00 Build 0)  -->
<svg version="1.1" xmlns="http://www.w3.org/2000/svg" xmlns:xlink="http://www.w3.org/1999/xlink" x="0px" y="0px"
	 viewBox="0 0 500 500" style="enable-background:new 0 0 500 500;" xml:space="preserve">
<style type="text/css">
	.st0{fill:#FFFFFF;}
	.st1{fill:#FF8A00;}
</style>
<g id="Capa_2">
</g>
<g id="Capa_1">
	<rect x="88" y="96" class="st0" width="322" height="322"/>
	<path class="st1" d="M384.18,59H116.82C84.89,59,59,84.89,59,116.82v267.36C59,416.11,84.89,442,116.82,442h267.36
		c31.93,0,57.82-25.89,57.82-57.82V116.82C442,84.89,416.11,59,384.18,59z M321.7,385.24c-32.38,17.69-71.81,24.1-113.02,13.89
		c-47.77-11.83-97.42-61.04-109.55-108.73c-29.3-115.21,71.3-217.06,186.28-189.99c49.6,11.68,100.34,62.31,112.11,111.89
		c12.06,50.83-1.08,98.87-29.45,134.14c-1.98,2.46-5.74,2.45-7.74,0.01l-16.15-19.68c-1.45-1.76-1.52-4.28-0.16-6.12
		c13.95-18.96,22.39-42.23,22.95-67.44c1.51-67.42-53.84-122.73-121.26-121.17c-59.79,1.38-108.63,47.04-115.01,105.46
		c-8.03,73.59,53.6,137.04,127.39,131.12c15.29-1.23,29.77-5.36,42.87-11.84c2.08-1.03,4.6-0.49,6.08,1.3l16.1,19.61
		C325.12,380.11,324.44,383.74,321.7,385.24z M213.96,178.56c-0.26,3.44-2.32,6.48-5.25,8.31c-18.93,11.79-32.19,31.84-34.73,55.11
		c-0.25,2.31-0.39,4.6-0.43,6.87c-0.1,6.16-5.01,11.16-11.17,11.16h-0.28c-6.2,0-11.24-5.05-11.17-11.24
		c0.37-34.17,18.42-64.09,45.45-81.03C204.31,162.76,214.7,168.95,213.96,178.56z M408.5,370.63l-45.08,36.84
		c-1.9,1.55-4.58,1.47-6.38-0.06c-0.51-0.29-0.98-0.67-1.37-1.15L237.67,261.9c-1.75-2.14-1.43-5.29,0.71-7.04l19.36-15.82
		c2.14-1.75,5.29-1.43,7.04,0.71l99.54,121.79l22.04-18.01c2.14-1.75,5.29-1.43,7.04,0.71l15.82,19.36
		C410.95,365.73,410.64,368.88,408.5,370.63z"/>
</g>
</svg>
